<?xml version="1.0" encoding="UTF-8" standalone="no"?>
<svg
   width="139px"
   height="140px"
   viewBox="0 0 139 140"
   version="1.1"
   id="svg14"
   sodipodi:docname="ico_cm.svg"
   inkscape:version="1.1 (c68e22c387, 2021-05-23)"
   xmlns:inkscape="http://www.inkscape.org/namespaces/inkscape"
   xmlns:sodipodi="http://sodipodi.sourceforge.net/DTD/sodipodi-0.dtd"
   xmlns="http://www.w3.org/2000/svg"
   xmlns:svg="http://www.w3.org/2000/svg"
   xmlns:rdf="http://www.w3.org/1999/02/22-rdf-syntax-ns#"
   xmlns:cc="http://creativecommons.org/ns#"
   xmlns:dc="http://purl.org/dc/elements/1.1/">
  <metadata
     id="metadata18">
    <rdf:RDF>
      <cc:Work
         rdf:about="">
        <dc:format>image/svg+xml</dc:format>
        <dc:type
           rdf:resource="http://purl.org/dc/dcmitype/StillImage" />
        <dc:title>Mastermind</dc:title>
      </cc:Work>
    </rdf:RDF>
  </metadata>
  <sodipodi:namedview
     pagecolor="#ffffff"
     bordercolor="#666666"
     borderopacity="1"
     objecttolerance="10"
     gridtolerance="10"
     guidetolerance="10"
     inkscape:pageopacity="0"
     inkscape:pageshadow="2"
     inkscape:window-width="1874"
     inkscape:window-height="992"
     id="namedview16"
     showgrid="false"
     inkscape:zoom="1.6857143"
     inkscape:cx="-126.94915"
     inkscape:cy="169.0678"
     inkscape:window-x="811"
     inkscape:window-y="373"
     inkscape:window-maximized="0"
     inkscape:current-layer="Imagotipo_Overlap"
     inkscape:pagecheckerboard="0" />
  <!-- Generator: Sketch 51.3 (57544) - http://www.bohemiancoding.com/sketch -->
  <title
     id="title2">mastermind</title>
  <desc
     id="desc4">Created with Sketch.</desc>
  <defs
     id="defs6" />
  <g
     style="fill:none;fill-rule:evenodd;stroke:none;stroke-width:1"
     id="Imagotipo_Overlap">
    <g
       id="g1159"
       transform="matrix(1.3144307,0,0,1.4510907,243.93412,-24.926077)">
      <path
         style="fill:#009abc;fill-opacity:1;stroke-width:0.188538"
         inkscape:connector-curvature="0"
         id="path1129"
         d="m -80.831227,98.010148 v -1.069827 h -5.316252 c -1.754362,0 -3.189748,-0.722134 -3.189748,-1.604741 v -5.349134 c 0,-0.882607 1.435386,-1.604744 3.189748,-1.604744 h 5.316252 V 45.588623 h -5.316252 c -1.754362,0 -3.189748,-0.722132 -3.189748,-1.604739 v -5.349135 c 0,-0.882607 1.435386,-1.604743 3.189748,-1.604743 h 5.316252 v -1.069825 c 0,-1.778589 -2.844193,-3.209481 -6.379503,-3.209481 h -89.31302 c -3.53531,0 -6.37951,1.430892 -6.37951,3.209481 v 1.069825 h 5.31625 c 1.75437,0 3.18975,0.722136 3.18975,1.604743 v 5.349135 c 0,0.882607 -1.43538,1.604739 -3.18975,1.604739 h -5.31625 v 42.793079 h 5.31625 c 1.75437,0 3.18975,0.722137 3.18975,1.604744 v 5.349134 c 0,0.882607 -1.43538,1.604741 -3.18975,1.604741 h -5.31625 v 1.069827 c 0,1.778587 2.8442,3.209482 6.37951,3.209482 h 89.31302 c 3.53531,0 6.379503,-1.430895 6.379503,-3.209482 z M -162.7015,45.588623 c -1.75436,0 -3.18975,-0.722132 -3.18975,-1.604739 v -5.349135 c 0,-0.882607 1.43539,-1.604743 3.18975,-1.604743 h 10.6325 c 1.75436,0 3.18975,0.722136 3.18975,1.604743 v 5.349135 c 0,0.882607 -1.43539,1.604739 -3.18975,1.604739 z m 25.518,0 c -1.75436,0 -3.18975,-0.722132 -3.18975,-1.604739 v -5.349135 c 0,-0.882607 1.43539,-1.604743 3.18975,-1.604743 h 10.63251 c 1.75436,0 3.18975,0.722136 3.18975,1.604743 v 5.349135 c 0,0.882607 -1.43539,1.604739 -3.18975,1.604739 z m 25.51801,0 c -1.75436,0 -3.18975,-0.722132 -3.18975,-1.604739 v -5.349135 c 0,-0.882607 1.43539,-1.604743 3.18975,-1.604743 h 10.63251 c 1.75436,0 3.189746,0.722136 3.189746,1.604743 v 5.349135 c 0,0.882607 -1.435386,1.604739 -3.189746,1.604739 z m -55.28901,36.37412 c -1.75436,0 -3.18976,-0.722133 -3.18976,-1.604743 V 53.612325 c 0,-0.882606 1.4354,-1.604739 3.18976,-1.604739 h 25.518 c 1.75437,0 3.18975,0.722133 3.18975,1.604739 V 80.358 c 0,0.88261 -1.43538,1.604743 -3.18975,1.604743 z m 44.65651,0 c -1.75436,0 -3.18975,-0.722133 -3.18975,-1.604743 V 53.612325 c 0,-0.882606 1.43539,-1.604739 3.18975,-1.604739 h 25.518008 c 1.754362,0 3.189748,0.722133 3.189748,1.604739 V 80.358 c 0,0.88261 -1.435386,1.604743 -3.189748,1.604743 z m -40.40351,14.977578 c -1.75436,0 -3.18975,-0.722134 -3.18975,-1.604741 v -5.349134 c 0,-0.882607 1.43539,-1.604744 3.18975,-1.604744 h 10.6325 c 1.75436,0 3.18975,0.722137 3.18975,1.604744 v 5.349134 c 0,0.882607 -1.43539,1.604741 -3.18975,1.604741 z m 25.518,0 c -1.75436,0 -3.18975,-0.722134 -3.18975,-1.604741 v -5.349134 c 0,-0.882607 1.43539,-1.604744 3.18975,-1.604744 h 10.63251 c 1.75436,0 3.18975,0.722137 3.18975,1.604744 v 5.349134 c 0,0.882607 -1.43539,1.604741 -3.18975,1.604741 z m 25.51801,0 c -1.75436,0 -3.18975,-0.722134 -3.18975,-1.604741 v -5.349134 c 0,-0.882607 1.43539,-1.604744 3.18975,-1.604744 h 10.63251 c 1.75436,0 3.189746,0.722137 3.189746,1.604744 v 5.349134 c 0,0.882607 -1.435386,1.604741 -3.189746,1.604741 z" />
      <path
         style="opacity:1;fill:#ffffff;fill-opacity:1;stroke:none;stroke-width:4.18104;stroke-miterlimit:4;stroke-dasharray:none;stroke-opacity:1"
         d="m -165.34564,51.610168 h 67.301424 c 4.691233,0 8.46793,3.776697 8.46793,8.46793 v 13.911597 c 0,4.691233 -3.776697,8.467929 -8.46793,8.467929 h -67.301424 c -4.69123,0 -8.46793,-3.776696 -8.46793,-8.467929 V 60.078098 c 0,-4.691233 3.7767,-8.46793 8.46793,-8.46793 z"
         id="rect1155" />
    </g>
    <g
       aria-label="m"
       transform="matrix(1.4730494,0,0,1.2948365,243.93412,-24.926077)"
       style="font-style:normal;font-variant:normal;font-weight:bold;font-stretch:normal;font-size:50.1169px;line-height:1.25;font-family:'.Beirut PUA';-inkscape-font-specification:'.Beirut PUA, Bold';font-variant-ligatures:normal;font-variant-caps:normal;font-variant-numeric:normal;font-feature-settings:normal;text-align:start;letter-spacing:0px;word-spacing:0px;writing-mode:lr-tb;text-anchor:start;fill:#f69333;fill-opacity:1;stroke:none;stroke-width:1.25292"
       id="text1127">
      <path
         d="m -103.65014,66.137084 q 1.66404,-2.544999 3.939857,-3.866441 2.300287,-1.345913 5.041055,-1.345913 4.722931,0 7.194517,2.912066 2.471586,2.912067 2.471586,8.467017 v 16.689321 h -8.809612 V 74.701985 q 0.02447,-0.318125 0.02447,-0.660721 0.02447,-0.342596 0.02447,-0.978846 0,-2.912066 -0.85649,-4.209037 -0.85649,-1.321442 -2.76524,-1.321442 -2.496056,0 -3.866443,2.055576 -1.34591,2.055577 -1.39485,5.946489 v 13.45913 h -8.80961 V 74.701985 q 0,-4.551633 -0.78308,-5.848604 -0.78308,-1.321442 -2.78971,-1.321442 -2.52053,0 -3.89091,2.080048 -1.37039,2.055576 -1.37039,5.897546 v 13.483601 h -8.80961 V 61.585451 h 8.80961 v 4.013268 q 1.6151,-2.324759 3.69515,-3.499374 2.10451,-1.174615 4.62504,-1.174615 2.83866,0 5.01659,1.370384 2.17793,1.370384 3.3036,3.84197 z"
         style="fill:#f69333;fill-opacity:1;stroke-width:1.25292"
         id="path826" />
    </g>
    <g
       aria-label="c"
       transform="matrix(1.3761766,0,0,1.3859835,243.93412,-24.926077)"
       style="font-style:normal;font-variant:normal;font-weight:bold;font-stretch:normal;font-size:64.8431px;line-height:1.25;font-family:'.Beirut PUA';-inkscape-font-specification:'.Beirut PUA, Bold';font-variant-ligatures:normal;font-variant-caps:normal;font-variant-numeric:normal;font-feature-settings:normal;text-align:start;letter-spacing:0px;word-spacing:0px;writing-mode:lr-tb;text-anchor:start;fill:#009abc;fill-opacity:1;stroke:none;stroke-width:1.62108"
       id="text1123">
      <path
         d="m -140.16316,52.900624 v 9.245207 q -2.3113,-1.583084 -4.65426,-2.342964 -2.3113,-0.75988 -4.81257,-0.75988 -4.74925,0 -7.40883,2.786227 -2.62792,2.754565 -2.62792,7.725447 0,4.970881 2.62792,7.757108 2.65958,2.754565 7.40883,2.754565 2.65958,0 5.0342,-0.791542 2.40629,-0.791541 4.43263,-2.342963 v 9.276868 q -2.65958,0.981512 -5.41414,1.456437 -2.7229,0.506587 -5.47747,0.506587 -9.59348,0 -15.00763,-4.907559 -5.41414,-4.93922 -5.41414,-13.709501 0,-8.770282 5.41414,-13.677841 5.41415,-4.93922 15.00763,-4.93922 2.78623,0 5.47747,0.506587 2.7229,0.474925 5.41414,1.456437 z"
         style="fill:#009abc;fill-opacity:1;stroke-width:1.62108"
         id="path829" />
    </g>
  </g>
</svg>
