<?xml version="1.0" encoding="UTF-8" standalone="no"?>
<svg
   width="591.06757"
   height="99.35463"
   viewBox="0 0 591.06757 99.35463"
   version="1.1"
   id="svg14"
   sodipodi:docname="logo_cm_bw.svg"
   inkscape:version="1.1 (c68e22c387, 2021-05-23)"
   xmlns:inkscape="http://www.inkscape.org/namespaces/inkscape"
   xmlns:sodipodi="http://sodipodi.sourceforge.net/DTD/sodipodi-0.dtd"
   xmlns="http://www.w3.org/2000/svg"
   xmlns:svg="http://www.w3.org/2000/svg"
   xmlns:rdf="http://www.w3.org/1999/02/22-rdf-syntax-ns#"
   xmlns:cc="http://creativecommons.org/ns#"
   xmlns:dc="http://purl.org/dc/elements/1.1/">
  <metadata
     id="metadata18">
    <rdf:RDF>
      <cc:Work
         rdf:about="">
        <dc:format>image/svg+xml</dc:format>
        <dc:type
           rdf:resource="http://purl.org/dc/dcmitype/StillImage" />
        <dc:title>Mastermind</dc:title>
      </cc:Work>
    </rdf:RDF>
  </metadata>
  <sodipodi:namedview
     pagecolor="#ffffff"
     bordercolor="#666666"
     borderopacity="1"
     objecttolerance="10"
     gridtolerance="10"
     guidetolerance="10"
     inkscape:pageopacity="0"
     inkscape:pageshadow="2"
     inkscape:window-width="2323"
     inkscape:window-height="978"
     id="namedview16"
     showgrid="false"
     inkscape:zoom="1.6857143"
     inkscape:cx="237.58474"
     inkscape:cy="20.169491"
     inkscape:window-x="877"
     inkscape:window-y="353"
     inkscape:window-maximized="0"
     inkscape:current-layer="Imagotipo_Overlap"
     fit-margin-top="0"
     fit-margin-left="5"
     fit-margin-right="5"
     fit-margin-bottom="0"
     inkscape:pagecheckerboard="0" />
  <!-- Generator: Sketch 51.3 (57544) - http://www.bohemiancoding.com/sketch -->
  <title
     id="title2">mastermind</title>
  <desc
     id="desc4">Created with Sketch.</desc>
  <defs
     id="defs6" />
  <g
     style="fill:none;fill-rule:evenodd;stroke:none;stroke-width:1"
     id="Imagotipo_Overlap"
     transform="translate(1.4795401,-22.598159)">
    <path
       style="fill:#b3b3b3;fill-opacity:1;stroke-width:0.260384"
       inkscape:connector-curvature="0"
       id="path1129"
       d="m 137.68707,117.29554 v -1.55242 h -6.98784 c -2.30599,0 -4.1927,-1.04788 -4.1927,-2.32862 v -7.76208 c 0,-1.28074 1.88671,-2.32863 4.1927,-2.32863 h 6.98784 V 41.22715 h -6.98784 c -2.30599,0 -4.1927,-1.047879 -4.1927,-2.328622 v -7.76208 c 0,-1.280743 1.88671,-2.328628 4.1927,-2.328628 h 6.98784 v -1.552413 c 0,-2.580894 -3.73849,-4.657248 -8.38541,-4.657248 H 11.905884 c -4.6469203,0 -8.3854241,2.076354 -8.3854241,4.657248 v 1.552413 h 6.9878421 c 2.305998,0 4.192705,1.047885 4.192705,2.328628 v 7.76208 c 0,1.280743 -1.886707,2.328622 -4.192705,2.328622 H 3.5204599 v 62.09664 h 6.9878421 c 2.305998,0 4.192705,1.04789 4.192705,2.32863 v 7.76208 c 0,1.28074 -1.886707,2.32862 -4.192705,2.32862 H 3.5204599 v 1.55242 c 0,2.58089 3.7385038,4.65725 8.3854241,4.65725 H 129.30166 c 4.64692,0 8.38541,-2.07636 8.38541,-4.65725 z M 30.074273,41.22715 c -2.305984,0 -4.192705,-1.047879 -4.192705,-2.328622 v -7.76208 c 0,-1.280743 1.886721,-2.328628 4.192705,-2.328628 h 13.975685 c 2.305985,0 4.192705,1.047885 4.192705,2.328628 v 7.76208 c 0,1.280743 -1.88672,2.328622 -4.192705,2.328622 z m 33.541643,0 c -2.305985,0 -4.192705,-1.047879 -4.192705,-2.328622 v -7.76208 c 0,-1.280743 1.88672,-2.328628 4.192705,-2.328628 h 13.975698 c 2.305984,0 4.192705,1.047885 4.192705,2.328628 v 7.76208 c 0,1.280743 -1.886721,2.328622 -4.192705,2.328622 z m 33.541656,0 c -2.305985,0 -4.192706,-1.047879 -4.192706,-2.328622 v -7.76208 c 0,-1.280743 1.886721,-2.328628 4.192706,-2.328628 h 13.975698 c 2.30598,0 4.1927,1.047885 4.1927,2.328628 v 7.76208 c 0,1.280743 -1.88672,2.328622 -4.1927,2.328622 z M 24.484,94.009297 c -2.305985,0 -4.192719,-1.04788 -4.192719,-2.328628 v -38.8104 c 0,-1.280741 1.886734,-2.328622 4.192719,-2.328622 h 33.541642 c 2.305998,0 4.192706,1.047881 4.192706,2.328622 v 38.8104 c 0,1.280748 -1.886708,2.328628 -4.192706,2.328628 z m 58.697887,0 c -2.305984,0 -4.192705,-1.04788 -4.192705,-2.328628 v -38.8104 c 0,-1.280741 1.886721,-2.328622 4.192705,-2.328622 h 33.541653 c 2.30599,0 4.1927,1.047881 4.1927,2.328622 v 38.8104 c 0,1.280748 -1.88671,2.328628 -4.1927,2.328628 z M 30.074273,115.74312 c -2.305984,0 -4.192705,-1.04788 -4.192705,-2.32862 v -7.76208 c 0,-1.28074 1.886721,-2.32863 4.192705,-2.32863 h 13.975685 c 2.305985,0 4.192705,1.04789 4.192705,2.32863 v 7.76208 c 0,1.28074 -1.88672,2.32862 -4.192705,2.32862 z m 33.541643,0 c -2.305985,0 -4.192705,-1.04788 -4.192705,-2.32862 v -7.76208 c 0,-1.28074 1.88672,-2.32863 4.192705,-2.32863 h 13.975698 c 2.305984,0 4.192705,1.04789 4.192705,2.32863 v 7.76208 c 0,1.28074 -1.886721,2.32862 -4.192705,2.32862 z m 33.541656,0 c -2.305985,0 -4.192706,-1.04788 -4.192706,-2.32862 v -7.76208 c 0,-1.28074 1.886721,-2.32863 4.192706,-2.32863 h 13.975698 c 2.30598,0 4.1927,1.04789 4.1927,2.32863 v 7.76208 c 0,1.28074 -1.88672,2.32862 -4.1927,2.32862 z" />
    <path
       style="fill:#ffffff;fill-opacity:1;stroke:none;stroke-width:5.77431;stroke-miterlimit:4;stroke-dasharray:none;stroke-opacity:1"
       d="m 26.598735,49.964958 h 88.463055 c 6.1663,0 11.13051,5.48033 11.13051,12.287734 v 20.186989 c 0,6.807405 -4.96421,12.287733 -11.13051,12.287733 H 26.598735 c -6.166297,0 -11.130507,-5.480328 -11.130507,-12.287733 V 62.252692 c 0,-6.807404 4.96421,-12.287734 11.130507,-12.287734 z"
       id="rect1155"
       inkscape:connector-curvature="0" />
    <g
       aria-label="m"
       transform="matrix(1.4730494,0,0,1.2948365,243.93412,-24.926077)"
       style="font-style:normal;font-variant:normal;font-weight:bold;font-stretch:normal;font-size:50.1169px;line-height:1.25;font-family:'.Beirut PUA';-inkscape-font-specification:'.Beirut PUA, Bold';font-variant-ligatures:normal;font-variant-caps:normal;font-variant-numeric:normal;font-feature-settings:normal;text-align:start;letter-spacing:0px;word-spacing:0px;writing-mode:lr-tb;text-anchor:start;fill:#e6e6e6;fill-opacity:1;stroke:none;stroke-width:1.25292"
       id="text1127">
      <path
         d="m -103.65014,66.137084 q 1.66404,-2.544999 3.939857,-3.866441 2.300287,-1.345913 5.041055,-1.345913 4.722931,0 7.194517,2.912066 2.471586,2.912067 2.471586,8.467017 v 16.689321 h -8.809612 V 74.701985 q 0.02447,-0.318125 0.02447,-0.660721 0.02447,-0.342596 0.02447,-0.978846 0,-2.912066 -0.85649,-4.209037 -0.85649,-1.321442 -2.76524,-1.321442 -2.496056,0 -3.866443,2.055576 -1.34591,2.055577 -1.39485,5.946489 v 13.45913 h -8.80961 V 74.701985 q 0,-4.551633 -0.78308,-5.848604 -0.78308,-1.321442 -2.78971,-1.321442 -2.52053,0 -3.89091,2.080048 -1.37039,2.055576 -1.37039,5.897546 v 13.483601 h -8.80961 V 61.585451 h 8.80961 v 4.013268 q 1.6151,-2.324759 3.69515,-3.499374 2.10451,-1.174615 4.62504,-1.174615 2.83866,0 5.01659,1.370384 2.17793,1.370384 3.3036,3.84197 z"
         style="fill:#e6e6e6;fill-opacity:1;stroke-width:1.25292"
         id="path826"
         inkscape:connector-curvature="0" />
    </g>
    <g
       aria-label="c"
       transform="matrix(1.3761766,0,0,1.3859835,243.93412,-24.926077)"
       style="font-style:normal;font-variant:normal;font-weight:bold;font-stretch:normal;font-size:64.8431px;line-height:1.25;font-family:'.Beirut PUA';-inkscape-font-specification:'.Beirut PUA, Bold';font-variant-ligatures:normal;font-variant-caps:normal;font-variant-numeric:normal;font-feature-settings:normal;text-align:start;letter-spacing:0px;word-spacing:0px;writing-mode:lr-tb;text-anchor:start;fill:#b3b3b3;fill-opacity:1;stroke:none;stroke-width:1.62108"
       id="text1123">
      <path
         d="m -140.16316,52.900624 v 9.245207 q -2.3113,-1.583084 -4.65426,-2.342964 -2.3113,-0.75988 -4.81257,-0.75988 -4.74925,0 -7.40883,2.786227 -2.62792,2.754565 -2.62792,7.725447 0,4.970881 2.62792,7.757108 2.65958,2.754565 7.40883,2.754565 2.65958,0 5.0342,-0.791542 2.40629,-0.791541 4.43263,-2.342963 v 9.276868 q -2.65958,0.981512 -5.41414,1.456437 -2.7229,0.506587 -5.47747,0.506587 -9.59348,0 -15.00763,-4.907559 -5.41414,-4.93922 -5.41414,-13.709501 0,-8.770282 5.41414,-13.677841 5.41415,-4.93922 15.00763,-4.93922 2.78623,0 5.47747,0.506587 2.7229,0.474925 5.41414,1.456437 z"
         style="fill:#b3b3b3;fill-opacity:1;stroke-width:1.62108"
         id="path829"
         inkscape:connector-curvature="0" />
    </g>
    <path
       d="m 155.70914,69.092503 c 0,-8.213681 3.30043,-12.687515 9.09371,-12.687515 5.23152,0 8.35638,3.774797 8.39149,8.98262 h 11.09502 v -1.363121 c 0,-10.31079 -8.18082,-17.161349 -19.59184,-17.161349 -13.34211,0 -20.82073,8.563198 -20.82073,22.229365 v 5.033063 c 0,13.596262 7.47862,22.159461 20.82073,22.159461 11.37591,0 19.59184,-6.780656 19.59184,-16.881734 v -1.398074 h -11.09502 c -0.0351,5.033063 -3.15997,8.737958 -8.39149,8.737958 -5.79328,0 -9.09371,-4.438883 -9.09371,-12.547708 z"
       style="font-style:normal;font-variant:normal;font-weight:bold;font-stretch:normal;font-size:71.744px;line-height:1.25;font-family:'.SF Compact Display';-inkscape-font-specification:'.SF Compact Display, Bold';font-variant-ligatures:normal;font-variant-caps:normal;font-variant-numeric:normal;font-feature-settings:normal;text-align:start;letter-spacing:0px;word-spacing:0px;writing-mode:lr-tb;text-anchor:start;fill:#b3b3b3;fill-opacity:1;stroke:none;stroke-width:1.7936"
       id="path827" />
    <path
       d="m 191.27642,95.411231 h 11.23547 V 58.082676 h -11.23547 z m -0.45643,-46.730598 c 0,3.320424 2.73864,5.487438 6.07417,5.487438 3.33553,0 6.07418,-2.167014 6.07418,-5.487438 0,-3.320424 -2.73865,-5.487437 -6.07418,-5.487437 -3.33553,0 -6.07417,2.167013 -6.07417,5.487437 z"
       style="font-style:normal;font-variant:normal;font-weight:bold;font-stretch:normal;font-size:71.744px;line-height:1.25;font-family:'.SF Compact Display';-inkscape-font-specification:'.SF Compact Display, Bold';font-variant-ligatures:normal;font-variant-caps:normal;font-variant-numeric:normal;font-feature-settings:normal;text-align:start;letter-spacing:0px;word-spacing:0px;writing-mode:lr-tb;text-anchor:start;fill:#b3b3b3;fill-opacity:1;stroke:none;stroke-width:1.7936"
       id="path830" />
    <path
       d="m 211.11404,95.411231 h 11.23548 V 74.090614 c 0,-4.508786 2.49287,-7.235029 6.28483,-7.235029 3.05465,0 6.1444,1.71264 6.1444,7.095222 v 21.460424 h 11.23547 V 71.329419 c 0,-9.122427 -5.05596,-13.805972 -12.60479,-13.805972 -6.39017,0 -9.79592,3.669942 -10.84925,6.361232 h -0.52666 v -5.802003 h -10.91948 z"
       style="font-style:normal;font-variant:normal;font-weight:bold;font-stretch:normal;font-size:71.744px;line-height:1.25;font-family:'.SF Compact Display';-inkscape-font-specification:'.SF Compact Display, Bold';font-variant-ligatures:normal;font-variant-caps:normal;font-variant-numeric:normal;font-feature-settings:normal;text-align:start;letter-spacing:0px;word-spacing:0px;writing-mode:lr-tb;text-anchor:start;fill:#b3b3b3;fill-opacity:1;stroke:none;stroke-width:1.7936"
       id="path832" />
    <path
       d="m 270.06514,96.110267 c 11.13015,0 15.97544,-6.780655 16.53721,-12.652562 h -10.21726 c -0.45643,2.761194 -2.9493,4.40393 -6.28484,4.40393 -3.86218,0 -6.8115,-2.831098 -6.8115,-7.584547 v -1.258266 h 23.55938 v -3.739846 c 0,-11.009826 -6.74128,-17.895337 -17.20431,-17.895337 -9.86615,0 -17.34476,6.116571 -17.34476,17.720578 v 2.970906 c 0,11.883623 7.23284,18.035144 17.76608,18.035144 z m -6.77639,-23.522582 v -0.03495 c 0,-4.124317 2.5982,-7.165126 6.4604,-7.165126 3.82708,0 6.31994,3.040809 6.31994,7.165126 v 0.03495 z"
       style="font-style:normal;font-variant:normal;font-weight:bold;font-stretch:normal;font-size:71.744px;line-height:1.25;font-family:'.SF Compact Display';-inkscape-font-specification:'.SF Compact Display, Bold';font-variant-ligatures:normal;font-variant-caps:normal;font-variant-numeric:normal;font-feature-settings:normal;text-align:start;letter-spacing:0px;word-spacing:0px;writing-mode:lr-tb;text-anchor:start;fill:#b3b3b3;fill-opacity:1;stroke:none;stroke-width:1.7936"
       id="path834" />
    <path
       d="m 293.41385,95.411231 h 11.23547 V 73.391578 c 0,-4.858305 2.56309,-6.745703 5.61774,-6.745703 2.94931,0 5.58262,1.642735 5.58262,6.780654 v 21.984702 h 10.74391 v -21.94975 c 0,-4.543737 2.21199,-6.815606 5.65285,-6.815606 3.08975,0 5.5124,1.852447 5.5124,6.570944 v 22.194412 h 11.27058 v -25.58474 c 0,-7.304933 -4.35375,-12.303044 -11.9728,-12.303044 -6.39017,0 -10.25236,3.530135 -11.3408,6.640847 h -0.45643 c -1.19378,-3.914605 -4.59953,-6.640847 -10.32259,-6.640847 -6.00395,0 -9.12882,3.565086 -10.0417,6.396185 h -0.56177 v -5.836956 h -10.91948 z"
       style="font-style:normal;font-variant:normal;font-weight:bold;font-stretch:normal;font-size:71.744px;line-height:1.25;font-family:'.SF Compact Display';-inkscape-font-specification:'.SF Compact Display, Bold';font-variant-ligatures:normal;font-variant-caps:normal;font-variant-numeric:normal;font-feature-settings:normal;text-align:start;letter-spacing:0px;word-spacing:0px;writing-mode:lr-tb;text-anchor:start;fill:#e6e6e6;fill-opacity:1;stroke:none;stroke-width:1.7936"
       id="path836" />
    <path
       d="m 377.43409,90.937396 h 0.49156 v 4.473835 h 10.56837 V 70.525528 c 0,-9.227284 -7.02217,-13.002081 -16.01055,-13.002081 -11.90257,0 -15.65944,6.361232 -15.8701,12.442851 h 10.49814 c 0.14044,-2.551484 2.03643,-4.299075 5.23151,-4.299075 3.15999,0 5.05596,1.677688 5.05596,4.718497 v 3.110713 h -8.67237 c -8.74259,0 -13.48256,4.334027 -13.48256,11.149633 0,7.095222 5.05596,11.324394 12.39413,11.324394 5.51239,0 8.53193,-2.446629 9.79591,-5.033064 z m -5.93373,-2.761194 c -2.63331,0 -5.16129,-1.467977 -5.16129,-4.403931 0,-2.516531 1.89599,-4.19422 5.37196,-4.19422 h 5.68795 v 3.669943 c 0,2.970905 -2.70352,4.928208 -5.89862,4.928208 z"
       style="font-style:normal;font-variant:normal;font-weight:bold;font-stretch:normal;font-size:71.744px;line-height:1.25;font-family:'.SF Compact Display';-inkscape-font-specification:'.SF Compact Display, Bold';font-variant-ligatures:normal;font-variant-caps:normal;font-variant-numeric:normal;font-feature-settings:normal;text-align:start;letter-spacing:0px;word-spacing:0px;writing-mode:lr-tb;text-anchor:start;fill:#e6e6e6;fill-opacity:1;stroke:none;stroke-width:1.7936"
       id="path838" />
    <path
       d="m 396.35884,95.411231 h 11.23547 V 74.090614 c 0,-4.508786 2.49286,-7.235029 6.28483,-7.235029 3.05465,0 6.1444,1.71264 6.1444,7.095222 V 95.411231 H 431.259 V 71.329419 c 0,-9.122427 -5.05596,-13.805972 -12.60478,-13.805972 -6.39018,0 -9.79593,3.669942 -10.84926,6.361232 h -0.52666 v -5.802003 h -10.91946 z"
       style="font-style:normal;font-variant:normal;font-weight:bold;font-stretch:normal;font-size:71.744px;line-height:1.25;font-family:'.SF Compact Display';-inkscape-font-specification:'.SF Compact Display, Bold';font-variant-ligatures:normal;font-variant-caps:normal;font-variant-numeric:normal;font-feature-settings:normal;text-align:start;letter-spacing:0px;word-spacing:0px;writing-mode:lr-tb;text-anchor:start;fill:#e6e6e6;fill-opacity:1;stroke:none;stroke-width:1.7936"
       id="path840" />
    <path
       d="m 459.45301,90.937396 h 0.49155 v 4.473835 h 10.56836 V 70.525528 c 0,-9.227284 -7.02217,-13.002081 -16.01054,-13.002081 -11.90258,0 -15.65944,6.361232 -15.8701,12.442851 h 10.49815 c 0.14043,-2.551484 2.03642,-4.299075 5.23151,-4.299075 3.15997,0 5.05596,1.677688 5.05596,4.718497 v 3.110713 h -8.67238 c -8.7426,0 -13.48256,4.334027 -13.48256,11.149633 0,7.095222 5.05595,11.324394 12.39412,11.324394 5.51241,0 8.53194,-2.446629 9.79593,-5.033064 z m -5.93373,-2.761194 c -2.63331,0 -5.1613,-1.467977 -5.1613,-4.403931 0,-2.516531 1.89599,-4.19422 5.37196,-4.19422 h 5.68796 v 3.669943 c 0,2.970905 -2.70354,4.928208 -5.89862,4.928208 z"
       style="font-style:normal;font-variant:normal;font-weight:bold;font-stretch:normal;font-size:71.744px;line-height:1.25;font-family:'.SF Compact Display';-inkscape-font-specification:'.SF Compact Display, Bold';font-variant-ligatures:normal;font-variant-caps:normal;font-variant-numeric:normal;font-feature-settings:normal;text-align:start;letter-spacing:0px;word-spacing:0px;writing-mode:lr-tb;text-anchor:start;fill:#e6e6e6;fill-opacity:1;stroke:none;stroke-width:1.7936"
       id="path842" />
    <path
       d="m 495.02028,101.21323 c -3.40575,0 -5.89862,-1.398069 -6.49551,-3.739841 h -10.70881 c 0.35112,6.221431 5.4773,11.604011 16.99366,11.604011 8.53193,0 18.32786,-3.39033 18.32786,-13.980736 V 58.082676 h -11.16525 v 5.662196 h -0.49156 c -1.43954,-3.565087 -5.33685,-6.081618 -10.56836,-6.081618 -8.39149,0 -13.86878,6.081618 -13.86878,17.650674 v 1.817495 c 0,11.63896 5.5124,17.685626 13.86878,17.685626 5.33685,0 9.12882,-2.551483 10.49814,-5.871907 h 0.49156 v 5.207823 c 0,4.508786 -2.42266,7.060265 -6.88173,7.060265 z m 0.316,-34.84697 c 3.93241,0 6.56573,3.215568 6.56573,9.157379 v 2.09711 c 0,5.976763 -2.56309,9.192332 -6.56573,9.192332 -4.07286,0 -6.67106,-3.215569 -6.67106,-9.192332 v -2.09711 c 0,-6.011714 2.5982,-9.157379 6.67106,-9.157379 z"
       style="font-style:normal;font-variant:normal;font-weight:bold;font-stretch:normal;font-size:71.744px;line-height:1.25;font-family:'.SF Compact Display';-inkscape-font-specification:'.SF Compact Display, Bold';font-variant-ligatures:normal;font-variant-caps:normal;font-variant-numeric:normal;font-feature-settings:normal;text-align:start;letter-spacing:0px;word-spacing:0px;writing-mode:lr-tb;text-anchor:start;fill:#e6e6e6;fill-opacity:1;stroke:none;stroke-width:1.7936"
       id="path844" />
    <path
       d="m 537.60975,96.110267 c 11.13014,0 15.97543,-6.780655 16.5372,-12.652562 H 543.9297 c -0.45644,2.761194 -2.9493,4.40393 -6.28484,4.40393 -3.86219,0 -6.8115,-2.831098 -6.8115,-7.584547 v -1.258266 h 23.55937 v -3.739846 c 0,-11.009826 -6.74128,-17.895337 -17.20431,-17.895337 -9.86615,0 -17.34475,6.116571 -17.34475,17.720578 v 2.970906 c 0,11.883623 7.23283,18.035144 17.76608,18.035144 z m -6.77639,-23.522582 v -0.03495 c 0,-4.124317 2.5982,-7.165126 6.46039,-7.165126 3.82708,0 6.31995,3.040809 6.31995,7.165126 v 0.03495 z"
       style="font-style:normal;font-variant:normal;font-weight:bold;font-stretch:normal;font-size:71.744px;line-height:1.25;font-family:'.SF Compact Display';-inkscape-font-specification:'.SF Compact Display, Bold';font-variant-ligatures:normal;font-variant-caps:normal;font-variant-numeric:normal;font-feature-settings:normal;text-align:start;letter-spacing:0px;word-spacing:0px;writing-mode:lr-tb;text-anchor:start;fill:#e6e6e6;fill-opacity:1;stroke:none;stroke-width:1.7936"
       id="path846" />
    <path
       d="m 560.95844,95.411231 h 11.58658 V 75.278976 c 0,-4.998111 2.17688,-8.318535 7.93505,-8.318535 1.65021,0 3.30042,0.139807 4.10797,0.419422 v -9.506899 c -0.73733,-0.20971 -1.79066,-0.314566 -3.37064,-0.314566 -4.98574,0 -7.7595,3.530135 -8.46171,6.011715 h -0.52667 v -5.487437 h -11.27058 z"
       style="font-style:normal;font-variant:normal;font-weight:bold;font-stretch:normal;font-size:71.744px;line-height:1.25;font-family:'.SF Compact Display';-inkscape-font-specification:'.SF Compact Display, Bold';font-variant-ligatures:normal;font-variant-caps:normal;font-variant-numeric:normal;font-feature-settings:normal;text-align:start;letter-spacing:0px;word-spacing:0px;writing-mode:lr-tb;text-anchor:start;fill:#e6e6e6;fill-opacity:1;stroke:none;stroke-width:1.7936"
       id="path848" />
  </g>
</svg>
